<?xml version="1.0" encoding="utf-8"?>
<!-- Generator: Adobe Illustrator 25.2.0, SVG Export Plug-In . SVG Version: 6.00 Build 0)  -->
<svg version="1.1" id="Layer_1" xmlns="http://www.w3.org/2000/svg" xmlns:xlink="http://www.w3.org/1999/xlink" x="0px" y="0px"
	 viewBox="0 0 300 300" style="enable-background:new 0 0 300 300;" xml:space="preserve">
<style type="text/css">
	.st0{fill:#005B72;}
</style>
<path class="st0" d="M282.6,155c-0.4-1.8,0-3.9,0.2-5.8c1.5-10.6,0.6-21.1-2.8-31.3c-2.2-6.7-5.5-13-9.5-18.8
	c-3.7-5.4-8.3-10-13.1-14.5c-3.2-3-6.6-5.9-10-8.7c-2.5-2.1-4.5-4.6-5.7-7.6c-2.9-6.9-5.8-13.8-8.4-20.8c-2.7-7-6.6-13.1-11.8-18.4
	c-3.3-3.4-6.9-6.6-10.7-9.5c-1.7-1.3-4.1-1.6-6.2-2.3c-0.5,0-1,0-1.5,0c-3.1,0.9-3.8,2.7-3.4,6.6c0.5,5,1.4,10,2.1,15
	c0.3,2.2,0.8,4.5,0.4,6.7c-1.3,7.6-4.1,11.7-11.6,13.3c-9.4,1.9-18.7,4-28,6.3c-8.3,2-16.6,4.5-24.2,8.3
	c-6.8,3.4-13.2,7.4-19.6,11.5c-4.3,2.7-8.4,5.6-12.4,8.7c-1.1,0.5-2,1.2-2.8,2.2c-1.7,1.3-3.3,2.7-5,4.1c-1.1-0.6-2.3-1.1-3.5-1.3
	c-0.8-0.1-1.6-0.4-2.3-0.6c-1.1-0.4-2.1-0.2-2.8,0.5c-0.8,0.7-1.6,1.6-2.2,2.6c-0.6,0.9-0.9,2-1.5,2.9c-0.7,1.1-1.3,2.2-2.2,3
	c-1.3,1.1-2,2.4-2.4,3.9c-0.5,1.8-0.6,3.7-0.5,5.5c-2.3,2.3-4.5,4.7-6.7,7.1c-5.3,5.8-10.3,11.9-15.2,18.1c-1.7,2.2-3.6,4.2-5.6,6.1
	c-0.2,0-0.4,0.1-0.6,0.1c-4.4,0.7-8.3,2.3-12.1,4.6c-2.8,1.7-5.8,3.3-8.7,4.8c-1.3,0.7-2.8,1.3-4.1,2.1c-1.8,1.1-2,2.2-0.3,3.5
	c0.8,0.7,1.7,1.3,2.6,1.9c-2.1,2.2-4,4.6-5.7,7.1c-2.8,4.2-4.9,8.8-7,13.4c-2.6,5.7-4.5,11.7-5.9,17.8c-0.8,3.7-0.4,7.1,1.6,10.4
	c0.8,0,1.6,0,2.3,0c3.1-4.5,6.1-9.2,9.5-13.6c5.5-7.3,11.7-13.9,18.2-20.3c4.9-4.8,11.5-5.9,17-4.9c-1.9,1.3-3.4,2.8-4.4,5
	c-1.3,3-2.7,6-4.1,9c-1.6,3.5-3.7,6.7-5.7,10c-0.6,1-1.1,2-1.6,3c-0.1,0.3-0.1,0.8,0.1,1c0.3,0.4,0.8,0.1,1.1-0.1
	c0.4-0.3,0.7-0.6,1.2-0.7c2.5-1,5.1-2,7.8-2.4c2.7-0.4,5.4-0.9,8.1-1.3c2.8-0.5,5.5-1.5,8-2.8c2.3-1.3,4.6-2.8,5.9-5.2
	c0-0.1,0.1-0.1,0.3-0.2c0.9,0.5,1.9,0.4,2.8-0.2c1.4-1,2.5-2.1,2.8-3.9c0-0.2,0.2-0.3,0.2-0.4c0.8,1,1.5,1.9,2.4,2.7
	c1.4,1.3,2.1,1.2,3-0.5c1.5-0.2,2-0.9,1.9-2.4c-0.1-0.7-0.3-1.4-0.6-2c-0.3-0.6-0.7-1.2-1.1-1.9c0.8,0.1,1.5,0.2,2.1,0.3
	c1.3,0.2,2.4-0.3,3.3-1.2c0.8-0.8,0.8-1.5,0.2-2.4c-0.2-0.3-0.5-0.7-0.7-1.1c0.2-0.2,0.3-0.3,0.5-0.5c1.2-0.9,0.7-2.6-0.6-3
	c-0.6-0.2-1.4-0.3-2.1-0.2c-0.9,0.2-1.8,0.6-2.6,0.9c-0.6,0.3-1.2,0.7-2,1.1c0.1-0.5,0.2-0.7,0.3-1c0.2-0.9,0.5-1.8,0.6-2.7
	c0.2-1.6-0.8-2.9-2.4-3.3c-0.7-0.2-1.3-0.1-1.8,0.3c-0.2,0.2-0.4,0.3-0.6,0.5c-0.4-0.3-0.6-0.6-1-0.7c-0.3-0.1-0.7,0.1-1.3,0.2
	c0.4-0.5,0.6-0.8,0.9-1.1c1.2-1.4,2.4-2.9,3.6-4.3c0.9-1.1,1.9-2.2,2.9-3.2c0.9-1,1-1,2.1-0.3c1,0.6,2,0.9,3.1,1.1
	c2.1,0.4,4.1,0.9,6.2,1.4c0.6,0.1,1.2,0.4,1.8,0.7c2.7,1,5.3,2.1,8,3.1c1.1,0.4,2.2,0.7,3.4,1c0.4,0.1,0.8,0.2,1.4,0.3
	c-2.2,1.1-4.3,2.1-6.2,3.1c-4.3,2.2-8.1,5-10.6,9.3c-0.4,0.7-1.2,1.3-1.8,2c-0.5,0.5-1,0.9-1.4,1.4c-0.2,0.2-0.3,0.7-0.2,0.9
	c0.1,0.2,0.5,0.4,0.8,0.4c0.2,0.1,0.5,0,0.8-0.1c3-0.2,5.8-1.2,8.6-2.4c4.5-1.9,8.2-4.6,11-8.6c0.3-0.5,0.8-0.9,1.3-1.5
	c-0.4,4.7-1.8,10.4-3.7,13.2c-1.3-0.2-2.7-0.4-4-0.7c-1.5-0.2-2.9-0.6-4.4-0.7c-2.4-0.2-4.8,0.3-6.9,1.7c-1.4,1-2.7,2.1-3.9,3.3
	c-0.8,0.8-1.7,1.4-2.8,1.8c-2.7,1-5.2,2.6-7.2,4.6c-3.5,3.5-5.8,7.7-6.8,12.6c-0.5,2.6-0.8,5.2,0,7.9c0.1,0.3,0,0.7-0.1,1.1
	c-0.4,1.1-0.9,2.2-1.1,3.3c-0.9,5.3,0.7,9.9,4.5,13.6c2.8,2.7,6.1,4.7,9.6,6.2c0.4,0.2,0.6,0.4,0.8,0.8c1.4,3.3,4,5.4,7.3,6.6
	c3.5,1.2,7,2.1,10.7,2.2c1.7,0,3.4,0.2,5-0.2c2.9-0.8,5.7-1.9,7.7-4.3c0.4-0.5,0.8-0.6,1.4-0.5c1.9,0.5,3.7,0.1,5.3-1
	c0.8-0.5,1.5-1.1,2.3-1.5c1.5-0.8,2.7-2,3.8-3.3c1.2-1.5,2.1-3.3,2.8-5.1c0.6-1.4,1-3,1.3-4.5c0.6-3.6,0.6-7.3,0.6-11
	c0.8-0.3,1-1,1.3-1.7c0.8-1.9,1-4,1.3-6c0.4-2.2-0.1-4.2-1.2-6.2c-0.8-1.4-1.6-2.9-2.2-4.4c-1-2.6-2-5.1-4.1-7c-1.1-1-2.2-2.1-3.4-3
	c-1.2-1-2.6-1.7-4.2-2c-1.7-0.2-3.4-0.4-5.1-0.6c-0.7-0.1-1.5-0.2-2.1-0.5c-1.2-0.6-2.5-1.2-3.9-1.5c-0.2-0.1-0.5-0.2-0.7-0.3
	c0.1-0.3,0.2-0.5,0.3-0.7c0.7-1.8,1.5-3.5,1.9-5.3c0.8-3.6,1.4-7.2,1.6-10.9c0.1-1.2,0.2-1.4,1.4-1.2c1.7,0.3,3.5,0.8,5.2,1.1
	c0.7,0.1,1.1,0.5,1.3,1.2c0.4,1.2,0.8,2.5,1.2,3.7c1,3.4,2,6.8,3.7,9.9c1.2,2.4,2.5,4.7,4.5,6.5c1.4,1.2,2.8,2.4,4.4,3.4
	c3.1,2.1,6.5,3.2,10.2,3.4c3.9,0.2,7.7,0.8,11.4,2c0.9,0.3,1.7,0.7,2.5,1.1c0.3,0.1,0.7,0.2,0.9,0.1c0.2-0.1,0.4-0.6,0.3-0.9
	c-0.1-0.9-0.3-1.7-0.5-2.6c-0.7-3.1-1.5-6.1-2.8-9c-1.6-3.6-3.2-7.3-5.2-10.7c0.2,0.2,0.5,0.4,0.7,0.6c0.8,0.9,1.8,1.6,3.1,1.9
	c0.7,0.1,1.3,0,1.7-0.6c0.2-0.2,0.3-0.5,0.5-0.7c1.6,0,2.4-0.7,2.5-2.2c0.1-1.1,0-2.1-0.8-2.9c-0.2-0.2-0.3-0.4-0.5-0.5
	c2.6,0.7,3.1,0.5,4-1.2c0.2,0.2,0.5,0.3,0.7,0.5c2.1,1.6,4.2,3.2,6.3,4.8c3.1,2.3,6.7,2.8,10.5,2.5c3.7-0.3,7.3-1.4,10.9-2.3
	c2.2-0.6,4.3-1.4,6.4-2.4c2.7-1.3,5.4-2.7,8.4-3.5c1.6-0.4,1.8-1,0.6-2.2c-2.5-2.8-5.2-5.3-8.1-7.6c-2.9-2.3-6-4.4-9.1-6.3
	c-0.8-0.5-1.7-1-2.6-1.5c5.5-1.9,10.6-4.7,15.2-8.6c1.4-1.2,2.6-2.5,3.9-3.7c7.7,4.8,11,11.9,10.2,21c-0.2,1.9-0.3,3.9-0.1,5.8
	c0.2,2.8,1.6,3.3,4,1.9c4.3-2.6,6.8-6.7,9.5-10.7c1.6-2.5,3.1-5.1,4.6-7.7c4.2,2.1,8.4,4.5,12.7,6.3c5.8,2.5,10,7,14.7,10.9
	c4.4,3.7,7.4,8.5,11.1,12.7c1.4,1.6,3.2,2.9,5.1,4c1.9,1,3.6,0.1,4.4-1.9c0.4-0.9,0.7-1.9,1.1-2.9c0-1.3,0-2.5,0-3.8
	C285.9,169,284.1,162,282.6,155z M77.2,210c0.6-5.4,3-10.1,6.7-14c1.2-1.2,2.7-2.2,4.1-3.1c3.4-2,7-3.1,11-2.8
	c0.5,0,1.1,0.2,1.6,0.6c-0.8,0.2-1.6,0.5-2.4,0.6c-1.2,0.1-2.3,0.6-3.3,1.1c-3.5,1.5-6.1,3.9-7.3,7.6c-0.2,0.6-0.4,1.3-0.7,1.9
	c-0.3,0.6-0.8,1.1-1.2,1.6c-0.5,0.7-1.2,1.3-1.6,2.1c-0.7,1.4-1.3,2.8-2,4.2c-0.1,0.2-0.3,0.4-0.5,0.5c-0.7,0.6-1.4,1.2-2.1,1.8
	c-0.8,0.8-1.4,1.6-2.2,2.5c-0.1,0-0.2,0-0.3-0.1C77.2,213,77.1,211.5,77.2,210z M129.2,212.1c1.9-2,2.4-4.4,2.6-7.1
	c0.9,0.8,1.9,2.7,2.3,4.2c1.4,5.7,0.9,11.2-1.7,16.5c-1.9,3.9-4.2,7.5-6.8,10.9c-0.2,0.3-0.4,0.5-0.7,0.7c-0.1,0.1-0.2,0.1-0.4,0.2
	c-0.1-1,0-2,0.5-2.8c1.5-2.5,2.3-5.2,2.8-8.1c0.6-3.2,1.1-6.4,1.6-9.6C129.5,215.4,129.6,213.8,129.2,212.1z M128.1,216.9
	c-0.3,2.5-0.6,4.9-1.1,7.4c-0.6,3.2-1.1,6.5-2.9,9.4c-3.2,5.2-7.8,7.7-13.9,7.4c-2.7-0.1-5.2-0.7-7.6-2c-0.6-0.3-1.3-0.6-2.2-1
	c0.6-0.3,0.9-0.4,1.2-0.6c1.3-0.6,2.5-1.2,3.8-1.8c0.4-0.2,0.9-0.3,1.3-0.3c3.9-0.2,7.2-1.6,9.9-4.4c1.1-1.2,1.9-2.5,2.4-4
	c0.2-0.5,0.5-0.9,1-1.3c2.3-2.2,4.2-4.6,4.7-7.9c0.4-3.1-0.2-6-1.3-8.9c-0.4-1-0.9-2.1-1.4-3.2c1,0.1,1.8,0.4,2.4,1
	c1.4,1.5,2.9,3.1,3.6,5.1C128.4,213.5,128.3,215.2,128.1,216.9z M120.1,219c-0.2-1.6-0.5-3.4-2.1-4.5c0.7-3.3-0.5-6.1-1.9-8.9
	c-0.5-1.1-1.4-1.8-2.4-2.3c-2.4-1.2-4.8-1.9-7.5-1.8c-1.3,0.1-2.5,0.1-3.8,0.1c-1.5,0.1-2.8,0.6-4,1.4c-1.6,1.1-3,2.4-3.7,4.2
	c-0.6,1.4-0.9,2.8-1.3,4.2c-0.1,0.2-0.1,0.5-0.2,0.7c-3.6,5.3-3.6,10.7-0.2,16.1c0,0.1,0,0.2,0,0.3c-2.1-2-4.2-4-4.4-7.2
	c-0.2-3.1-0.2-6.2,0.3-9.2c0.3-1.6,0.8-3.3,1.5-4.8c0.5-1,1.4-1.8,2.2-2.5c1.3-1.1,2.8-2.1,4.2-3.2c3.3-2.5,7.1-3.6,11.3-3.2
	c1.8,0.2,3.4,0.7,4.9,1.6c1,0.6,2,1.1,3,1.7c2.4,1.4,4.1,3.4,5.3,6c1.3,2.9,2.1,5.8,2.1,9c0,1.6-0.5,3.1-1.4,4.4
	c-0.7,1-1.3,1.9-2.2,3.1C119.9,222.2,120.3,220.6,120.1,219z M106.3,220.8c0.4,0,0.6,0.4,0.6,0.8c-0.1,0.5-0.6,1.1-1.1,1
	c-1.1-0.2-2.3-0.3-3.1-1.3c-1-1.2-0.8-2,0.6-2.8C104,219.9,104.7,220.9,106.3,220.8z M105.7,215.3c1.4,0.3,2.6,0.8,3.3,2.2
	c0.5,1-0.3,2.1-1.3,2.1c-0.5,0-0.8-0.3-1.1-0.7c-0.5-0.9-1.1-1.8-2.3-2C103.9,215.4,104.7,215.1,105.7,215.3z M102.5,217.8
	c-1.5,0.4-2,2.4-1.2,3.5c0.5,0.7,0.8,1.5,0.9,2.4c0.2,1,1,1.7,1.9,2.2c0.3,0.1,0.5,0.2,0.8,0.4c-1.2,0.3-2.2-0.1-3.1-0.7
	c-1.5-1-2.4-2.4-2.4-4.3c0-1.5,0-2.9,0.9-4.2c0.6-0.9,1.4-1.6,2.7-1.5c0.1,0.6,0.3,1.2,0.4,1.8C103,217.5,102.7,217.7,102.5,217.8z
	 M103.1,223.3c0.6,0.2,1,0.2,1.3,0.4c2.1,0.8,3.9-0.5,3.6-2.9c2.1-1.1,2.5-1.8,2.2-4c0.9,0.6,1.4,1.5,1.6,2.5
	c0.4,2.4-1.7,5.1-4.1,5.6c-0.3,0.1-0.6,0.1-0.9,0.2C105.3,225.5,104.2,224.9,103.1,223.3z M108.9,214.7c-1.1-0.3-2.2-0.5-3.3-0.6
	c-0.4-0.1-0.8-0.1-1.1,0c-1,0.5-2.1,0.3-3.2,0.5c-0.2-1.8,1.2-3.9,3.1-4.3c1.4-0.3,2.8-0.2,4.2,0.5c2.4,1.2,4.1,3,5.2,5.4
	c0.6,1.3,0.4,2.6-0.6,4C112.9,217.3,111.3,215.3,108.9,214.7z M110.7,210.7c-0.7-0.5-1.4-0.9-2.2-1.2c-2.3-0.9-4.5-0.9-6.5,0.7
	c-1.3,1.1-2,2.5-1.9,4.2c0,0.6-0.1,1-0.5,1.5c-1.1,1.3-1.5,2.8-1.5,4.4c0,0.7,0,1.5,0,2.4c-1.9-2.5-2.9-5.1-3.3-8.1
	c-0.2-1.8-0.3-3.5,0.2-5.2c0.9-2.8,2.7-4.7,5.2-6.1c0.4-0.2,0.8-0.4,1.2-0.4c2.7-0.2,5.4-0.6,8,0c1.3,0.3,2.6,0.9,3.9,1.5
	c0.9,0.4,1.5,1.1,1.8,2c0.6,1.6,1.3,3.3,1.7,5c0.2,0.9,0,2-0.2,3c-0.3,1.1-0.5,2.2-1.2,3.2C114.7,214.6,113.1,212.4,110.7,210.7z
	 M91.8,221.9c-0.4-2.3,0.5-6.1,1.8-8.1c0.1,0.8,0.2,1.3,0.3,1.9c0.3,3,1.8,5.4,3.3,7.8c0.1,0.2,0.2,0.4,0.4,0.5
	c1.7,1.4,3.4,2.9,5.6,3.4c1.6,0.4,3,0.2,4.2-1c0.2-0.2,0.6-0.3,0.9-0.5c0.5-0.2,1.2-0.4,1.6-0.7c1.5-1.4,3.4-2.5,4.5-4.3
	c0.1-0.1,0.1-0.3,0.2-0.3c1.9-0.9,2.2-2.8,3-4.5c0-0.1,0.1-0.1,0.2-0.4c0.2,0.3,0.4,0.5,0.5,0.8c0.5,1.5,1,2.9,0.7,4.5
	c-0.4,2-0.7,4.1-1.5,6c-1.2,2.8-3.3,4.6-5.9,5.8c-1.8,0.8-3.7,1.4-5.7,0.9c-1.2,0.4-2.4,0.1-3.6-0.3
	C96.6,231.6,92.9,227.9,91.8,221.9z M126.7,207.7c-1.4-2.2-3.7-3.1-6-4c-0.4-0.1-0.7-0.4-1-0.7c-0.7-0.6-1.4-1.3-2.2-1.8
	c-1.6-1-3.3-2-5-2.9c-2.6-1.3-5.4-1.4-8.1-1.1c-3,0.3-5.7,1.5-8.1,3.3c-1.4,1.1-2.9,2.2-4.3,3.2c-1.2,0.9-2.3,2.3-3.2,4.4
	c-0.3-0.7-0.8-3.6-0.7-4.8c0.6-5.8,5-10.1,10.6-10.9c2.5-0.3,5-0.2,7.5,0.5c2.3,0.6,4.6,0.9,6.9,1.3c2.1,0.3,3.9,1.1,5.8,1.9
	c1.8,0.8,3.4,2,4.8,3.4c0.7,0.6,1.2,1.5,1.7,2.4c0.9,1.8,1.6,3.7,1.5,5.7C126.7,207.7,126.7,207.7,126.7,207.7z M87.6,210.1
	c-1.9,2.9-4,5.8-4.9,9.2c-0.3-0.7-0.4-3-0.3-5.2c0.1-1.8,0.5-3.6,1.3-5.1c0.8-1.6,1.4-3.3,2.9-4.7C87,206.3,87.3,208.3,87.6,210.1z
	 M89.5,238.6c-0.1,0-0.2,0.1-0.3,0.1c-3-1.6-6.1-3.3-8.6-5.7c-3.6-3.4-5.3-7.7-4.3-12.7c0.4-2.1,1.3-4.2,2.8-5.9
	c0.7-0.8,1.4-1.6,2.3-2.5c0,0.5,0,0.8,0,1.1c0,2.2-0.1,4.5,0,6.7c0,0.7,0.3,1.5,0.5,2.2c0,0.2,0.1,0.5,0,0.7
	c-1,4.2,0.6,7.5,3.3,10.5c1.3,1.4,2.8,2.5,4.4,3.9C89.6,237.4,89.5,238,89.5,238.6z M85.9,232.2c-2-2.1-3.3-4.6-3.2-7.6
	c0-0.7,0.2-1.4,0.4-2.1c0.2-0.8,0.6-1.6,0.7-2.4c0.3-1.8,1-3.3,1.9-4.8c0.6-0.9,1.1-1.9,1.8-3.1c0,0.7,0,1.1-0.1,1.5
	c-0.4,2.9-0.3,5.9,0.1,8.8c0.2,1.3,0.8,2.5,1.6,3.5c1.4,1.9,3,3.5,4.9,4.9c0.7,0.5,1.5,0.9,2.3,1.2c0.8,0.4,1.5,0.7,2.3,1.1
	c1.5,0.7,3,1.3,4.5,2c-3.5,2.1-7,2.7-10.9,1.2C89.7,235.5,87.7,234.1,85.9,232.2z M111.8,248.3c-2,0.2-4.1,0-6.2-0.2
	c-2.8-0.2-5.5-1-8.1-2c-2.3-0.8-4.2-2.3-5.6-4.3c-1-1.3-1.3-2.9-1.4-4.7c1.5,0.4,2.9,1,4.4,1.2c1.4,0.2,2.8,0.1,4.4,0.1
	c3.3,2.7,7.5,3.7,11.9,3.8c4.6,0.1,8.3-2,11.7-5c0.2,1.5-0.1,2.7-0.7,3.8C120,245.1,116.6,247.8,111.8,248.3z M136.8,226.1
	c-0.3,5-2,9.4-5.3,13.2c-0.2,0.2-0.3,0.4-0.5,0.6c-1.6,1-3.2,2.1-4.8,3c-1.2,0.7-2.5,0.8-3.9,0.7c0.6-1.5,1.2-2.9,1.8-4.2
	c0.1-0.2,0.2-0.4,0.4-0.5c2-1.2,3.2-3.3,4.4-5.1c1.6-2.5,3.1-5.1,4.5-7.7c1.7-3.1,2.2-6.6,2.5-10.1c0-0.4,0.1-0.8,0.1-1.4
	c0.8,0.9,0.8,1.8,0.8,2.7C136.9,220.1,137,223.1,136.8,226.1z M129.7,191.1c0.7,0.6,1.5,1.3,2.2,1.9c2.2,1.9,3.4,4.4,4.4,7.1
	c0.6,1.7,1.5,3.4,2.4,5c0.8,1.5,1.3,2.9,1,4.6c-0.3,2.2-0.4,4.6-1.5,6.7c-0.1-0.2-0.2-0.4-0.3-0.5c-0.2-1.6-1.2-2.8-1.8-4.1
	c-0.2-0.4-0.5-0.9-0.6-1.3c-0.3-2-1.1-3.8-2.2-5.5c-0.4-0.6-1-1.1-1.6-1.9c-0.2-1.7-0.3-3.5-1-5.3c-1.1-3-3.2-5.2-6-6.5
	c-1.3-0.6-2.2-1.6-3.3-2.7C124.5,188.6,127.3,189.1,129.7,191.1z M125.1,192.8c3.2,1.9,4.7,4.8,5.2,8.4c0.3,2,0.3,4,0,6
	c-0.2,1.4-0.7,2.5-1.7,3.5c-0.2-1.1-0.4-2.2-0.4-3.2c-0.1-2.9-1.1-5.6-2.8-7.9c-0.9-1.2-2.1-2.1-3.3-2.9c-1.4-0.9-2.9-1.6-4.4-2.2
	c-2.6-1.2-5.4-1.5-8.2-1.9c-1.4-0.2-2.8-0.8-4.4-1.2c1-0.2,1.9-0.4,2.9-0.6c2-0.3,4-0.6,6-1c1.6-0.3,3.3-0.1,4.9,0.4
	C121,190.9,123.1,191.7,125.1,192.8z M117.2,187.5c0.7,0.4,1.4,0.7,2.1,1.1c0.3,0.2,0.5,0.4,0.8,0.6c0,0.1-0.1,0.2-0.1,0.3
	c-3.1-1.3-6.3-0.8-9.5-0.2c-2,0.3-4,0.7-6,1c-0.5,0.1-1,0-1.6-0.2c-2.3-0.9-4.8-1.3-7.3-0.9c-0.3,0-0.6,0.1-0.9,0.1c0,0-0.1,0-0.2,0
	c0-0.1,0-0.3,0-0.3c1.5-1.2,2.9-2.7,4.8-3.3c2.5-0.8,5-0.7,7.5-0.2c2,0.4,4,0.8,6,1C114.5,186.5,115.9,186.8,117.2,187.5z
	 M186.3,132.5c-3,4.3-5.4,8.8-9.3,12.3c-0.9,0.8-1.7,1.6-2.5,2.4c-3.9-0.4-7.7-0.2-11.5,0.8c-0.4,0.1-0.8,0.2-1.3,0.3
	c1.3-1.4,2.5-2.6,3.5-3.9c2.6-3.3,4.5-6.8,4.9-11.1c0.1-0.6,0.2-1.2,0.3-1.8c5.1,0.2,10.2,0.4,15.3,0.6
	C185.8,132.4,185.9,132.4,186.3,132.5z M155.6,169.6c-0.4,1.9-0.8,3.8-1.2,5.7c-0.3,1.2-0.7,1.8-1.7,2.6c-0.2-0.6-0.3-1.1-0.4-1.6
	c-0.1-0.6-0.4-0.9-1.2-0.8c-0.6,0.1-1-0.2-1.2-0.8c-0.1-0.4-0.1-0.8,0-1.2c0.3-1.3,0.8-2.5,1.8-3.5c1.3-1.2,2.5-2.5,3.7-3.8
	c0.2-0.2,0.4-0.3,0.8-0.6C156,166.9,155.8,168.3,155.6,169.6z M156.2,176.1c-0.4-0.3-0.8-0.6-0.5-1.3
	C156.1,175.2,156.4,175.6,156.2,176.1z M145.2,169.1c-0.2,0-0.3-0.1-0.6-0.1c0.1-0.3,0.2-0.5,0.3-0.7c1.4-1.4,3-2.5,5.1-2.7
	c1.2-0.1,2.4-0.5,3.6-0.8c0.5-0.1,0.9-0.2,1.5-0.3c0,0.2,0,0.3-0.1,0.4c-1.9,1.9-3.7,3.9-5.7,5.8c-0.5,0.5-1.2,1-1.8,1.4
	c-0.3,0.2-0.8,0.1-1,0c-0.2-0.1-0.2-0.6-0.1-0.9C147,169.2,147,169.2,145.2,169.1z M147.3,163.7c-1.3-0.1-2.6-0.4-3.6-1.2
	c-0.1-0.7,0.4-1,0.9-1.2c1.3-0.6,1.4-0.7,1.1-2c-0.1-0.7,0.2-1,0.7-1.2c1.7-0.6,3.5-0.5,4.9,0.6c1.7,1.3,3.2,2.7,4.9,4.1
	C153.2,163.5,150.3,164,147.3,163.7z M148.4,156.6c-0.6-0.1-1.3,0-1.9,0.2c-0.8,0.3-1.5,0.3-2.3-0.1c-0.4-0.2-0.9-0.3-1.6-0.5
	c2.9-1.5,5.6-2.7,8.6-3.3c0,1.4,0.1,2.8,0.1,4.2C150.5,156.9,149.5,156.7,148.4,156.6z M82.5,150.2c0.3,0.8,0.7,1.5,1,2.3
	c0.1,0.2,0.1,0.5,0.2,0.8c-0.3,0-0.5-0.1-0.8-0.1c-1.6-0.2-3.2-0.4-4.8-0.5c-0.8,0-1.4-0.2-2-0.7c-0.2-0.1-0.3-0.3-0.5-0.4
	c2.2-1.6,4.4-3.1,6.7-4.5C82,148.2,82,149.2,82.5,150.2z M83.4,143.1c-0.6-0.8-1.3-1.6-1.9-2.4c-1.2-1.5-2-3.3-2.7-5.1
	c-0.7-1.8-1.1-3.5-0.9-5.4c0-0.7,0.2-1.6,0.6-2.2c1.2-1.8,2.5-3.4,3.8-5.2c0.7,1.7,1.5,3.2,2.1,4.8c0.9,2.1,2.3,3.9,4.3,5.2
	c0.5,0.3,0.8,0.7,0.8,1.3c0,0.7,0,1.4,0.1,2.1c0,0.1,0,0.3,0,0.4c0.1,0.6,0.1,1.2,0.2,1.8c0,0.1,0,0.2,0,0.3
	c0.1,0.6,0.3,1.3,0.4,1.9c0,0,0,0.1,0,0.1c0.2,0.7,0.4,1.3,0.6,2c0,0,0,0,0,0l0,0c0.8,2.1,1.8,4.1,3.1,6c0,0,0,0.1,0,0.1
	c-2.7,1.8-5.2,0.8-7.3-1.5c-0.5-0.6-1-1.1-1.5-1.7l0,0C84.7,144.8,84,143.9,83.4,143.1z M92.2,142.7c-0.1-0.2-0.1-0.3-0.2-0.5
	c-0.1-0.3-0.2-0.6-0.3-0.8c0,0,0-0.1,0-0.1c-0.1-0.3-0.2-0.5-0.2-0.8c0-0.1,0-0.1-0.1-0.2c-0.1-0.2-0.1-0.5-0.2-0.7
	c0-0.1,0-0.2-0.1-0.3c0-0.2-0.1-0.4-0.1-0.6c0-0.1,0-0.2-0.1-0.4c0-0.2-0.1-0.4-0.1-0.6c0-0.2,0-0.3-0.1-0.5c0-0.2,0-0.3-0.1-0.5
	c0-0.2,0-0.4,0-0.6c0-0.1,0-0.3,0-0.4c0-0.3,0-0.7,0-1c0-1.5,0-3,0.1-4.5c0.2-3,1.1-4.3,4.5-3.9c0.7,0.1,1.4,0.2,2.1,0.4
	c-0.3,0.9-0.7,1.7-0.9,2.5c-0.3,1.9-0.6,3.9-0.3,5.9c0.1,1.3,0.4,2.5,1,3.6c0.2,0.3,0.3,0.6,0.4,0.9c0,0,0,0.1,0,0.1l0,0
	c1.7,5,5.1,8.6,9.7,11.1c2.5,1.4,5.2,2.2,8.1,2c0.4,0,0.8,0,1.4,0c-0.2,0.3-0.3,0.5-0.5,0.5c-1.6,1-3.2,2-4.9,2.9
	c-1.1,0.6-2.3,0.7-3.4,0.4C100.7,154.3,95,150,92.2,142.7z M115.8,95.1c3.1,1,6.1,2.1,8.9,3.8c1,0.6,1.7,1.4,2.3,2.5
	c0.9,1.8,1.4,3.7,1.4,5.7c0,0.7,0.1,1.3,0.2,2c0.3,1.7,0.2,3.3-0.3,4.9c-0.4,1.4-0.7,1.5-2,0.9c-0.4-0.2-0.8-0.4-1.3-0.6
	c-0.7-3.7-3.1-6.1-6.1-8c-1.5-1-3.2-0.9-4.9-0.3c-0.9,0.3-1.7,0.7-2.5,1.1c-0.6,0.4-1.2,0.4-1.8,0.1c-0.2-0.1-0.4-0.1-0.6-0.2
	c-1.6-1.1-3.4-1.4-5.4-1.1c-0.2-1.3-0.4-2.6-0.6-3.9c-0.1-0.7-0.3-1.3-0.2-2c0.2-1.7,1.1-3,2.4-4.1c1.3-1.1,2.9-1.8,4.5-2.1
	c0.6-0.1,1.3,0,1.9,0.1C113.1,94.2,114.4,94.6,115.8,95.1z M129.7,108.7c0-0.8-0.1-1.6-0.2-2.4c-0.1-0.8,0.3-1.3,0.9-1.7
	c0.7-0.4,1.5-0.9,2.2-1.3c1.2-0.7,2.5-0.3,3.6,0.2c1.5,0.7,2.9,1.6,4,2.8c0.4,0.4,0.9,1,1.1,1.5c0.8,2,1.2,4.1,0.9,6.3
	c-0.2,2-0.4,4.1-0.6,6.2c-0.3,2.7-1.4,5-3.4,6.9c-0.5,0.5-1.3,0.8-2.1,0.8c-0.1-0.4-0.2-0.8-0.3-1.1c-0.4-2.8-1.4-5.4-2.7-7.8
	c-0.8-1.4-2.1-2.2-3.5-3c-0.2-0.1-0.5-0.2-0.6-0.3c0.3-1.3,0.6-2.6,0.8-3.8C129.9,110.9,129.8,109.8,129.7,108.7z M143.7,114.1
	c1.6,1.3,2.8,2.8,3.9,4.4c0.7,0.9,1.3,1.8,2,2.6c1.3,1.5,1.4,3.1,1,4.9c-0.3,1.4-1,2.7-1.4,4c-0.7,2.2-2.2,3.9-3.4,5.7
	c-0.6,0.9-1.1,1.8-1.5,2.8c-0.9,2.6-2.3,5-4.1,7.1c-1.1,1.3-2.5,1.9-4.4,1.4c0.9-1.8,1.6-3.5,1.8-5.4c0.1-0.7,0.1-1.4,0-2.1
	c0-0.7-0.1-1.4-0.2-2.1c-0.1-1-0.3-1.9-0.5-2.8c-0.1-0.5-0.2-0.9-0.3-1.4c-0.1-0.5-0.2-1-0.3-1.4l0,0c-0.1-0.3-0.1-0.6-0.2-0.9
	c-0.1-0.4,0-0.8,0.1-1.3c0.1-0.1,0.2-0.2,0.3-0.2c2.6-0.6,4.1-2.4,5.1-4.7c0.8-1.6,1.3-3.2,1.3-5.1c0-1.5,0.2-3,0.4-4.5
	C143.4,114.7,143.5,114.4,143.7,114.1z M167,100.1c-0.3,0.5-0.3,0.8-0.5,1c-2.8,3.7-5.3,7.6-7.6,11.6c-1.3,2.3-2.3,4.7-3.1,7.2
	c-0.4,1.1-0.7,2.3-1.1,3.4c-0.1,0.4-0.2,0.7-0.3,1.1c-0.2,0.8-0.4,1.6-0.6,2.4c-0.1,0.4-0.2,0.8-0.3,1.2c-0.2,0.9-0.5,1.9-0.7,2.8
	l0,0c-0.4,1.5-0.7,3-1,4.4c-0.1,0.5-0.3,0.9-0.4,1.5c-0.8-1.1-1.5-2.1-2.1-3c-0.1-0.2-0.1-0.7,0-0.9c0.4-1,0.9-2,1.3-3
	c1-2,1.6-4.1,1.3-6.3c-0.1-1.1-0.5-2-1.2-2.9c-0.7-0.9-1.3-1.8-2-2.7c-0.6-0.8-0.7-1.6-0.4-2.5c1.3-3.1,2.9-6,6-7.8
	c2.8-1.6,5.6-3.2,8.4-4.9C164.1,101.9,165.4,101.1,167,100.1z M98.7,139.3c-0.2-0.8-0.6-1.5-0.9-2.3c0.1,0,0.1-0.1,0.2-0.1
	c0.2,0.2,0.4,0.4,0.5,0.6c0.2,0.3,0.4,0.5,0.6,0.8c0,0,0,0,0,0c0.2,0.2,0.4,0.5,0.6,0.7c0,0,0,0,0,0l0,0c1.3,1.2,2.9,1.7,4.7,1.9
	c1.5,0.1,3,0.1,4.5,0c0.9-0.1,1.7,0,2.5,0.5c0.5,0.3,1,0.6,1.5,1c1.9,1.2,3.7,1.2,5.6,0.1c1.3-0.7,2.5-1.6,3.8-2.3
	c0.9-0.6,2.1-0.5,2.8,0.2c0.3,0.3,0.5,0.7,0.5,1.1c-0.3,2.3-0.7,4.6-2.3,6.4c-1.1,1.2-2.5,2.2-3.9,3.1c-0.7,0.4-1.6,0.5-2.4,0.6
	c-2.6,0.3-5.1,0-7.5-1c-2.2-0.9-4-2.1-5.7-3.7C101.5,144.7,99.6,142.4,98.7,139.3L98.7,139.3C98.7,139.3,98.7,139.3,98.7,139.3z
	 M131.6,126.5c0,0.1,0,0.3,0,0.4c0,0.2,0,0.4-0.1,0.6c0,0.2-0.1,0.3-0.1,0.5c0,0.2-0.1,0.3-0.1,0.5c0,0.2-0.1,0.3-0.2,0.5
	c0,0.1-0.1,0.3-0.2,0.4c-0.1,0.2-0.1,0.4-0.2,0.5c-0.1,0.1-0.1,0.2-0.2,0.4c-0.1,0.2-0.2,0.4-0.3,0.6c-0.1,0.1-0.1,0.2-0.2,0.3
	c-0.1,0.2-0.2,0.4-0.4,0.6c0,0.1-0.1,0.1-0.1,0.2c-0.2,0.2-0.3,0.5-0.5,0.7c-0.2,0.2-0.3,0.4-0.5,0.6c-0.4,0.5-0.8,0.7-1.5,0.7
	c-0.9-0.1-1.9,0-3,0.1c0.2-0.3,0.3-0.5,0.5-0.8l0,0c0,0,0,0,0,0c0.4-0.7,0.6-1.3,0.7-2c0,0,0-0.1,0-0.1c0.1-0.3,0.1-0.6,0.1-1
	c0-0.1,0-0.1,0-0.2c0-0.3,0-0.7-0.1-1c-0.3-1.5-0.8-3-1.6-4.4c-1.7-2.9-4.2-4.9-7.4-6c-0.1,0-0.1-0.1-0.2-0.2
	c0.9-1.9,2.3-3.1,4.2-3.7c0.3-0.1,0.6,0,0.9,0c1,0.2,2.1,0.4,3.1,0.7c2.5,0.7,4.5,2,5.6,4.3c0.9,1.8,1.5,3.6,1.7,5.6
	C131.6,125.7,131.6,126.1,131.6,126.5z M107.5,136.5c-0.5-0.5-0.9-1.2-1.1-2c0,0,0,0,0-0.1c-0.1-0.2-0.1-0.5-0.2-0.8
	c0,0,0-0.1,0-0.1c0-0.3-0.1-0.5-0.1-0.8c0,0,0-0.1,0-0.1c0-0.3,0-0.5,0-0.8c0,0,0-0.1,0-0.1c0-0.3,0.1-0.5,0.2-0.7c0,0,0,0,0-0.1
	c0.1-0.3,0.2-0.5,0.4-0.7c1.1-1.6,2.1-3.1,3.7-4.3c1.7-1.3,2.8-1.6,4.9-0.1c-0.4,0.4-0.8,0.7-1.1,1c-0.4,0.4-0.9,0.7-1.2,1.1
	c-2.2,2.2-1.3,5.6,1.7,6.5c0.2,0,0.3,0.1,0.5,0.1l0,0c0.6,0.2,1.3,0.3,2.1,0.5c-0.3,0.2-0.5,0.4-0.6,0.4c-2,1-4.2,1.4-6.4,1.9
	c-0.9,0.2-1.7-0.1-2.4-0.7C107.7,136.7,107.6,136.6,107.5,136.5z M118,134.1c-1-0.2-1.9-0.4-2.7-0.6c-1.2-0.3-1.9-1-2.3-2.1
	c-0.4-1,0.1-1.8,0.7-2.5c0.6-0.7,1.3-1.3,2.1-1.8c0.4-0.2,1-0.4,1.4-0.2c1,0.4,2,0.9,2.8,1.6c1.1,0.9,1.1,2.4,0,3.6
	C119.5,132.9,118.6,133.6,118,134.1z M120.2,133.8L120.2,133.8c0.2-0.2,0.5-0.5,0.7-0.7c1.6-1.9,1.8-4.5-0.7-5.9
	c-0.9-0.6-2-0.9-3-1.4c-1-0.5-1.8-1.1-2.8-1.5c-1.3-0.6-2.7-0.6-4,0.3c-0.1,0.1-0.3,0.1-0.5,0.2c-0.7-2-0.3-3.4,1.2-4.3
	c0.2-0.1,0.4-0.3,0.7-0.3c1.4-0.1,2.8-0.2,4.3-0.3c0.2,0,0.3,0.1,0.5,0.1c3.6,1.8,6.3,4.3,7.3,8.4c0.1,0.3,0.1,0.5,0.2,0.8
	c0,0.1,0,0.2,0,0.3c0,0.1,0,0.3,0,0.4c0,0.1,0,0.2,0,0.4c0,0.1,0,0.2,0,0.3c0,0.1,0,0.3,0,0.4c0,0.1,0,0.2-0.1,0.3
	c0,0.1-0.1,0.3-0.1,0.4c0,0.1-0.1,0.2-0.1,0.2c-0.1,0.1-0.1,0.3-0.2,0.4c0,0.1-0.1,0.1-0.1,0.2c-0.1,0.1-0.2,0.3-0.3,0.4
	c0,0-0.1,0.1-0.1,0.1c-0.1,0.2-0.3,0.3-0.4,0.4c-0.2,0.2-0.4,0.3-0.6,0.5c-1.2,0.9-2.4,1.9-3.5,2.8c-0.6,0.4-1.2,0.3-1.9,0.2
	C118,135.9,119.2,134.9,120.2,133.8z M117.3,115c-0.6-0.7-1.2-1.3-1.7-1.9c-1.2-1.8-2.7-2.9-4.9-3.3c-0.2,0-0.3-0.1-0.6-0.2
	c0.4-0.4,0.7-0.8,1.1-1.1c1.2-0.9,2.5-1.4,3.9-1.7c1.8-0.4,3.4,0.3,4.7,1.6c0.9,0.9,1.7,1.9,2.5,2.8c0.7,0.8,1,1.7,1.1,3.1
	C121.2,113,119.2,113.5,117.3,115z M111.6,111.3c0.7,0.2,1.5,0.7,2,1.2c1,1,1.8,2.1,2.7,3.3c-0.3,0.5-0.7,0.8-0.8,1.2
	c-0.4,1.3-1.4,1.7-2.6,1.7c-1.1,0-2,0.3-2.8,1c-1.4,1.1-1.8,2.6-1.4,4.2c0.3,1.3,0,2.1-0.9,2.9c-0.5,0.4-0.9,1.1-1.4,1.6
	c-0.1,0-0.2,0-0.3,0c-1.8-1-3.4-2.2-4.3-4.1c-0.5-1.1-1-2.4-1.2-3.6c-0.4-2-0.8-4.1-0.1-6.1c0.4-1.2,1-2.3,2.3-2.9
	c0.4-0.2,0.8-0.5,1.2-0.7c1-0.7,2.1-0.8,3.1-0.7C108.5,110.6,110.1,110.9,111.6,111.3z M100.9,125.6c1.3,1.7,2.8,3,4.8,3.8
	c-0.1,0.3-0.1,0.5-0.2,0.7c-0.2,0.3-0.3,0.6-0.4,0.9c0,0.1-0.1,0.2-0.1,0.3c0,0.2-0.1,0.4-0.1,0.6c0,0.1,0,0.3,0,0.4
	c0,0.2,0,0.3,0,0.5c0,0.2,0,0.4,0,0.5c0,0.1,0,0.2,0,0.2c0.1,0.8,0.4,1.6,0.8,2.3c0,0,0,0,0,0c0.4,0.8,1,1.5,1.8,2
	c1,0.6,2,0.9,3.1,0.6c0.4-0.1,0.8-0.2,1.2-0.3c1.6-0.4,3.1-0.6,4.7-0.2c1.6,0.4,2.2,0.1,3.6-1c0,0.9,0,1.8,0,2.8
	c-0.7,0.5-1.6,1.1-2.6,1.6c-1.3,0.7-2.7,0.7-3.9-0.2c-0.2-0.2-0.5-0.3-0.7-0.5c-1.4-1-2.9-1.5-4.7-1.1c-1.7,0.3-3.3,0.1-5-0.3
	c-0.8-0.2-1.5-0.5-2.1-0.9c-0.3-0.2-0.5-0.4-0.8-0.7c-0.2-0.3-0.5-0.5-0.7-0.8c-1.4-2.2-2.6-4.4-2-7.1
	C98,128,98.8,126.4,100.9,125.6z M121.5,139c-0.3-1.1-0.1-1.7,0.7-2.4c0.5-0.4,0.9-0.8,1.3-1.4c1.3,0,2.5-0.1,3.8-0.1
	c0.9,0,1.5-0.2,2.1-0.9c0.5-0.6,0.9-1.2,1.4-1.8l0,0c0,0,0,0,0,0c0.2-0.4,0.5-0.7,0.7-1.1c0,0,0,0,0,0c0.2-0.4,0.4-0.7,0.6-1.1
	c0,0,0-0.1,0.1-0.1c0.1-0.3,0.2-0.6,0.3-1c0-0.1,0.1-0.2,0.1-0.3c0.1-0.4,0.2-0.8,0.2-1.2c0.3-3.2-0.4-6.1-2-8.8
	c-0.1-0.2-0.2-0.4-0.3-0.6c0,0,0-0.1,0.1-0.3c0.6,0.6,1.2,1.1,1.5,1.7c1.8,3,2.8,6.2,3,9.7c0,0.2,0,0.4,0,0.7c0,0.1,0,0.1,0,0.2
	c0,0.2,0,0.3-0.1,0.5c0,0,0,0.1,0,0.1c0,0.2-0.1,0.4-0.1,0.5c0,0,0,0.1,0,0.1c0,0.2-0.1,0.4-0.2,0.6c-0.2,0.8-0.5,1.5-0.8,2.2
	c-0.3,0.8-0.7,1.5-1.1,2.3c-0.7,1.2-1.5,2.1-2.7,2.8c-1.1,0.6-2.1,1.4-3.2,2.2C126.2,138.8,124.6,138.2,121.5,139z M103,107.3
	c1.8-0.6,3.5-0.6,5.1,0.4c0.5,0.3,1,0.5,1.5,0.8c-0.3,0.4-0.5,0.7-0.8,1c-0.7-0.1-1.3-0.3-2-0.3c-1.3-0.2-2.4,0.1-3.5,0.8
	c-0.3,0.2-0.6,0.4-1,0.6c-2.7,1.4-3.5,3.8-3.5,6.6c0,2.5,0.5,5,1.6,7.4c-0.6,0.3-1.1,0.6-1.6,0.8c-0.5,0.1-1.1,0.1-1.6,0.1
	c-0.7-0.1-1.5-0.3-2.3-0.4c-0.1-0.2-0.2-0.4-0.3-0.6c-0.8-3.2-0.9-6.3,0.3-9.4c0.8-2.3,2.2-4.3,3.8-6c0.4-0.4,1.1-0.7,1.6-0.9
	C101.2,107.8,102.1,107.6,103,107.3z M118.2,152.9c0.2-0.2,0.5-0.4,0.8-0.5c1.9-0.7,3.4-2.2,4.9-3.5c1.5-1.4,2-3.4,2.5-5.3
	c0.1-0.2,0.1-0.5,0.1-0.7c1.7-1.1,3.3-2.1,4.9-3.2c1-0.7,1.8-1.7,2.4-2.7c0.5-1,1-1.9,1.6-3.1c0.5,1.2,0.8,2.2,0.8,3.3
	c0,1.5,0.5,3,0.2,4.5c-0.3,1.6-0.8,3.2-1.7,4.6c-1.1,1.6-2.3,3-3.9,4.1c-1,0.7-1.9,1.6-2.6,2.6c-1.6,2.2-3.8,2.9-6.4,2.8
	c-1.7,0-3.3-0.5-5-1.1C117.3,154,117.7,153.4,118.2,152.9z M124.6,156.7c1.9-0.4,3.3-1.6,4.5-3c1-1.1,2.2-2.1,3.3-3.1
	c0.9-0.9,1.8-1.8,2.7-2.7c0.2,0,0.3,0,0.4,0.1c2.4,0.9,4.3-0.1,5.8-1.9c1.6-2,3-4.1,3.8-6.5c0.6-1.9,1.8-3.4,3-5
	c0.7,0.4,1.1,1.1,1.4,1.7c0.7,1.3,1.4,2.6,1.8,4c0.3,0.9,0.2,2,0.2,3c0,0.5-0.1,1.1,0,1.6c0.2,1.8,0,3.5-1,5.1
	c-0.8,1.3-1.9,2.3-3.2,2.9c-1.7,0.8-3.5,1.6-5.2,2.3c-1.7,0.7-3,1.9-4,3.4c-2.3,3.7-5.8,4.3-9.6,4.3c-0.9,0-1.8-0.3-2.5-1.1
	c-0.8-0.9-1.5-1.8-2.2-2.8C123.3,158.2,123.8,156.9,124.6,156.7z M150.8,151.7c0.4-0.7,0.6-1.1,0.9-1.6c1.1-1.6,1.2-3.5,1-5.3
	c0-0.5-0.1-0.9,0-1.4c0.2-1.5,0.2-3-0.6-4.4c-0.1-0.3-0.1-0.7,0-1c0.6-2.4,1.2-4.8,1.8-7.2l0,0c0.4-1.5,0.8-3,1.2-4.5
	c1.5-5.8,3.6-11.4,6.9-16.5c1.6-2.5,3.2-4.9,5-7.3c0.2-0.2,0.4-0.4,0.7-0.9c0,0.6,0,0.9,0,1.3c0,1.6-0.3,3.1-0.1,4.7
	c0.2,1.9,0.6,3.7,1.1,5.6c0.5,1.8,1.2,3.6,1.9,5.4c0.7,1.9,0.9,3.9,0.4,5.8c-0.5,2.3-1.1,4.5-1.7,6.7c0,0.2-0.1,0.4-0.1,0.6l0,0
	c-0.2,0.8-0.3,1.7-0.4,2.5c-0.5,3.6-2.3,6.7-4.4,9.5c-1.9,2.4-4.2,4.4-6.9,5.8C155.4,150.5,153.2,151.2,150.8,151.7z M82.7,111.2
	c0.4-1.4,1-2.5,2.1-3.5c0.9-0.8,1.6-1.9,2.3-3c0.6-1,1-2.1,1.6-3.1c0.5-0.8,1.1-1.5,1.7-2.1c0.5-0.5,1.2-0.7,2-0.4
	c1.1,0.4,2.3,0.6,3.4,0.9c0.6,0.2,1.2,0.4,1.8,0.7l0,0c0.3,0.1,0.5,0.3,0.7,0.4c0.2,0.2,0.5,0.3,0.7,0.5c0.6,0.5,1.1,1,1.8,1.4
	c1.1,0.7,1.7,1.7,1.7,3.1c-0.7,0.2-1.5,0.5-2.2,0.7c-1.3,0.3-2.2,1-3.1,2c-2.1,2.2-3.2,4.8-4,7.6c-0.5,1.9-0.6,3.9-0.2,5.9
	c0.2,0.9,0.4,1.8,0.6,2.7c-2.7,0.4-3.7,2.2-4,4.7c-0.1,0.7-0.1,1.3-0.2,2.2c-1.2-0.9-2.3-1.8-2.9-3c-1.2-2-2.3-4.1-2.9-6.5
	c-0.5-2-1.1-4.1-1.3-6.2C82.1,114.5,82.2,112.9,82.7,111.2z M29.8,159.7c4.6-2.1,9-4.5,13.2-7.2c2.9-1.8,6.1-2.9,9.4-3.5
	c3-0.5,6-1,9-0.9c2.4,0.1,4.7,0.5,7,1c0.6,0.1,1.2,0.4,1.7,0.7c1.4,0.7,2.8,1.5,4.2,2.3c0.1,0.1,0.2,0.2,0.4,0.3
	c0.1,0.1,0.2,0.2,0.3,0.3c-0.3,0-0.6,0.1-0.8,0.1h0c0,0,0,0,0,0c-0.6,0.1-1.1,0.1-1.6,0.2c-5.4,1.1-10.8,2.2-16,4.1
	c-3.9,1.4-8.1,2.1-12.2,2.5c-1.4,0.1-2.9,0.2-4.3,0.3c-0.4,0-0.8,0.1-1.1,0.1c-1.3,0.1-2.7,0.2-4,0.2c-1.1,0.1-2.1,0.1-3.2,0.2
	c-0.9,0-1.8-0.1-2.7-0.1c0-0.1,0-0.2,0-0.3C29.3,160,29.5,159.8,29.8,159.7z M29.2,162.4c-0.2-0.1-0.4-0.4-0.8-0.8
	c0.5,0,0.8,0,1.1,0c3.8,0.1,7.5,0,11.2-0.3c0.1,0,0.3,0,0.4,0c0.6,0,1.1-0.1,1.7-0.2c0.4,0,0.8-0.1,1.2-0.1c0.5-0.1,0.9-0.1,1.4-0.2
	c0.5-0.1,1-0.1,1.5-0.2c0.4-0.1,0.8-0.1,1.2-0.2c0.6-0.1,1.2-0.2,1.7-0.3c0.3-0.1,0.7-0.1,1-0.2c0.9-0.2,1.8-0.4,2.7-0.6
	c1.5-0.4,3-0.8,4.5-1.4c0.6-0.2,1.2-0.4,1.8-0.6c0.2-0.1,0.4-0.1,0.6-0.2c0.4-0.1,0.8-0.3,1.2-0.4c0.2-0.1,0.5-0.1,0.7-0.2
	c0.4-0.1,0.7-0.2,1.1-0.3c0.3-0.1,0.5-0.1,0.8-0.2c0.3-0.1,0.7-0.2,1-0.3c0.3-0.1,0.5-0.1,0.8-0.2c0.3-0.1,0.7-0.2,1-0.2
	c0.3-0.1,0.6-0.1,0.9-0.2c0.3-0.1,0.7-0.1,1-0.2c0.3-0.1,0.6-0.1,0.9-0.2c0.4-0.1,0.7-0.1,1.1-0.2c0.4-0.1,0.9-0.2,1.4-0.3l0,0
	c0.2,0,0.4-0.1,0.7-0.1c0.1,0,0.2,0,0.6,0c-0.4,0.3-0.6,0.5-0.8,0.7c-1.1,0.9-2,1.8-2.8,2.9c0,0,0,0,0,0c-0.2,0.2-0.3,0.4-0.4,0.7
	c0,0,0,0.1-0.1,0.1c-0.1,0.2-0.2,0.4-0.3,0.7c0,0-0.1,0.1-0.1,0.1c-0.1,0.3-0.2,0.6-0.3,0.9c-1.8,5.1-5.8,8-10.4,10.3
	c-1.2,0.6-2.6,0.8-3.9,0.8c-2.8,0.1-5.5-0.2-8.2-1c-2.6-0.8-5-1.9-7.5-3c-1.8-0.8-3.6-1.6-5.4-2.5c-0.3-0.2-0.7-0.4-1-0.5
	c-0.3-0.2-0.6-0.4-0.9-0.6l0,0C30.6,163.3,29.9,162.9,29.2,162.4z M78.2,171.4c0.1,0,0.1-0.1,0.2-0.2c0.1-0.1,0.2-0.2,0.3-0.3
	c0.1-0.1,0.1-0.2,0.2-0.2c0.1-0.1,0.1-0.2,0.2-0.2c0.1-0.1,0.2-0.2,0.2-0.4c0,0,0,0,0,0l0,0c0.1-0.1,0.1-0.2,0.2-0.3
	c0.1-0.1,0.2-0.2,0.3-0.2c0.1,0,0.2,0,0.2,0c-0.1,0.8-0.3,1.5-0.4,2.3v0c-0.1,0.6-0.2,1.2-0.3,1.8c-0.8-0.3-1.6-0.7-2.5-1
	c0-0.5,0.4-0.9,0.8-1C77.8,171.7,78,171.6,78.2,171.4z M50.4,194.3c1.2-2,2.3-4.1,3.2-6.3c1.3-3,2.8-5.9,4.2-8.9
	c0.6-1.3,1.6-2.2,2.8-3.1c0.6-0.4,1.1-0.7,1.7-1.1c0.3-0.1,0.5-0.3,0.8-0.4c0.3-0.2,0.7-0.4,1-0.5c0.3-0.1,0.5-0.2,0.8-0.4
	c0.4-0.2,0.8-0.3,1.2-0.5c0.2-0.1,0.4-0.2,0.7-0.2c0.6-0.2,1.3-0.4,1.9-0.6c2.7-0.7,5.5-1.2,8.2-1.9c0,0.1,0.1,0.1,0.1,0.2
	c-2.3,2.8-4.6,5.6-7,8.3l0,0c-0.6,0.8-1.3,1.5-1.9,2.3c-2.8,3.2-5.9,6-9.1,8.7c-2.6,2.1-5.1,4.3-7.6,6.5c-1.2,1-2.4,1.9-3.8,2.7
	C48.4,197.6,49.4,195.9,50.4,194.3z M76.2,188.7c-0.7,1.2-1.4,2.3-2.5,3.1c-3.2,2.5-6.9,4.1-10.9,4.9c-2.7,0.5-5.5,0.9-8.2,1.4
	c-1.2,0.2-2.4,0.6-3.6,0.9c-0.3,0.1-0.6,0.2-1,0.1c0.2-0.2,0.4-0.4,0.6-0.6c4.1-3.5,8.2-6.9,12.2-10.4c2.8-2.5,5.3-5.2,7.8-8.1
	c0-0.1,0.1-0.1,0.2-0.2c0.6-0.7,1.2-1.3,1.8-2c0.2,0.3,0.4,0.5,0.6,0.8c-0.1,0.2-0.3,0.3-0.4,0.5c-0.6,0.7-0.6,0.9-0.2,1.7
	c0.6,1.1,1.4,1.9,2.8,1.7c0.1,0,0.3,0,0.4,0.1c0.1,0,0.1,0.1,0.3,0.2c-0.2,0.2-0.5,0.5-0.7,0.7c0,0,0,0,0,0l0,0
	c-0.1,0.1-0.3,0.3-0.4,0.4c-0.7,0.7-1.3,1.4-1,2.4c0.3,1,1.2,1.3,2.4,1.4C76.3,188.1,76.4,188.5,76.2,188.7z M82.4,181.7
	c-0.3,1.5-0.5,3-1,4.4c-0.4,1.2-1.3,2-2.4,2.5c-0.8,0.4-1.1,0.2-1.3-0.6c0-0.1-0.1-0.2-0.1-0.4c-0.3-1.1-0.3-1.1-1.4-1.2
	c-0.6-0.1-0.6-0.1-1.2-0.8c0.5-0.6,1-1.1,1.6-1.6l0,0c0.3-0.3,0.6-0.5,0.9-0.7c0,0,0.1-0.1,0.1-0.1c0.3-0.2,0.6-0.4,0.9-0.6
	c0,0,0.1,0,0.1,0c0.3-0.2,0.6-0.4,1-0.5c0,0,0,0,0,0c0.3-0.2,0.7-0.3,1.1-0.5c0.6-0.3,1.2-0.5,1.8-0.7
	C82.4,181.3,82.5,181.5,82.4,181.7z M89,185.9c-0.7,0-1.3-0.6-1.6,0.1c-0.2,0.4-0.3,0.9-0.4,1.4c-2.7-1.5-4-4.9-2.8-7.3
	c1.1,0.6,2.2,1.2,3.2,1.9C88.5,183,89.2,184.3,89,185.9z M91.3,174.3c0.3-0.1,0.7-0.1,1,0c0.4,0.1,0.9,0.3,1,0.6
	c0.3,0.5-0.3,0.6-0.7,0.9c-0.7,0.5-0.7,0.7-0.4,1.5c0.2,0.4,0.4,0.7,0.7,1.1c0.5,0.7,0.4,1-0.2,1.5c-0.8,0.6-1.6,0.7-2.5,0.5
	c-1.1-0.3-2.1-0.3-3.2-0.8c-0.8-0.4-1.7-0.4-2.6-0.6c0.1-0.2,0.2-0.4,0.4-0.6C86.6,176.3,88.8,175.1,91.3,174.3z M81.6,169.7
	c0.3,0.2,0.4,0.4,0.6,0.5c0.7,0.5,0.9,0.5,1.4-0.3c0.4-0.6,0.8-0.9,1.5-0.6c0.8,0.3,1.4,0.9,1.3,1.6c0,0.4,0,0.8-0.1,1.3
	c-0.6,2.1-1.3,4.1-3,5.9c-0.8-1.2-1.7-2.3-2.3-3.6C80.2,172.9,80.8,171.3,81.6,169.7z M82.7,179.4c-0.7,0.3-1.4,0.5-2.1,0.8l0,0
	c-0.4,0.1-0.7,0.3-1.1,0.4c0,0-0.1,0-0.1,0c-0.4,0.1-0.7,0.2-1.1,0.3c-0.1,0-0.1,0-0.2,0c-0.3,0.1-0.6,0.1-0.9,0.2
	c-0.1,0-0.2,0-0.3,0c-0.4,0-0.7,0.1-1.1,0.1c-1,0-1.6-0.2-2-1.3c0.8-0.7,1.1-1.5,0.4-2.4c0.3-0.7,0.6-1.4,0.8-2
	c0.5-1.4,1.3-1.8,2.6-1.2c0.8,0.4,1.6,1,2.2,1.6C80.7,177,81.6,178.2,82.7,179.4z M83.5,162.8c-1.4,1.7-2.8,3.3-4.2,5.1
	c-0.2,0.2-0.4,0.4-0.6,0.6c-1-2.5-2.5-4.6-4.6-6.5c-1.1-1-2-2.2-3-3.4c-0.1-0.1-0.2-0.2-0.2-0.3c0.1-0.1,0.2-0.2,0.3-0.3
	c1.3-1.4,2.8-2.6,4.4-3.6c0.2-0.1,0.4-0.3,0.5-0.3c1-0.1,2-0.1,3-0.1c1.3,0.1,2.6,0.2,3.9,0.5c0.7,0.1,1.5,0.4,2,0.9
	c1,0.9,1.8,2,2.7,3.1C86.1,159.6,84.8,161.2,83.5,162.8z M100.9,176.4c2.2-2.4,4.9-3.9,7.7-5.4c1.5-0.8,3-1.5,4.7-2.3
	c-1.5,2.4-13.3,11.7-16.4,12.7C98.2,179.7,99.5,178,100.9,176.4z M116,169.4c-2.9,4.7-6.4,8.6-11.6,10.8c-1.5,0.6-3,1.2-4.4,1.8
	c-0.4,0.1-0.8,0.2-1.2,0.3c6.4-4.2,11.9-9.3,17.4-14.5C116.4,168.4,116.3,168.9,116,169.4z M115.9,165.4c-0.7,0.3-1.6,0.3-2.3,0.3
	c-2.2,0-4.1-1-6-1.8c-2.9-1.1-5.8-2.3-8.7-3.3c-1.6-0.5-3.3-0.9-4.9-1.1c-3.1-0.4-5.4-2-7.3-4.3c-1.4-1.7-2.2-3.7-3.1-5.6
	c-0.5-1.3,0-2.3,1-3.2c0.4,0.4,0.7,0.9,1,1.3c1.1,1.4,2.4,2.3,4,2.9c1.2,0.4,2.3,0.4,3.5,0c0.7-0.2,1.3-0.5,2-0.7
	c0.2,0.2,0.4,0.4,0.6,0.6c2.7,3,6,5.1,9.8,6.5c0.6,0.2,1.2,0.5,1.9,0.7c1.6,0.5,3.2,0.3,4.8-0.4c1.2-0.6,2.4-1.1,3.8-1.8
	c1.7,1.3,4.2,1.4,6.6,1.7c-0.2,1.4-1,2.5-1.5,3.7C120,163.1,118.1,164.5,115.9,165.4z M123.8,166.7c-1.7-0.4-3.4-0.8-5.3-1.3
	c2.1-1.3,3.5-3.3,4.3-5.7c0.3,0.4,0.5,0.6,0.7,0.8c0.3,0.4,0.6,0.8,0.9,1.2c1.2,1.5,2.7,2.3,4.6,2.2c2-0.1,4-0.3,5.9-1.1
	c1.5-0.7,2.7-1.6,3.6-3c0.5-0.8,1.2-1.5,1.9-2.2c0.3-0.4,0.7-0.5,1.1-0.3c0.9,0.3,1.8,0.5,2.7,0.8c0.1,0.6,0.1,1.3,0.2,1.9
	c-0.3,0.2-0.6,0.3-1,0.5c-0.7,0.4-1.1,1-1.1,1.8c0,0.8,0.5,1.3,1.2,1.6c1.2,0.4,2.4,0.8,3.6,1.2c-0.7,0.5-1.4,1-2.3,1.6
	c-2.9-0.8-5.9-1-8.9-0.9c-1.8,0.1-3.5,0.4-5.2,0.8C128.4,167.3,126.2,167.3,123.8,166.7z M161.5,197.1c-1.5-0.4-3-0.9-4.5-1.2
	c-2.5-0.7-5.2-0.7-7.8-0.9c-3.1-0.3-6-1.2-8.7-2.9c-1.8-1.1-3.6-2.3-5-4c-2.3-2.6-4-5.5-5.2-8.7c-1.2-3.3-2.2-6.6-3.2-10
	c-0.1-0.2-0.1-0.4-0.2-0.7c0.5,0.1,0.9,0.1,1.2,0.3c4.4,1.6,8.8,3.2,12.6,6c2,1.5,3.9,3.2,5.8,4.8c2,1.7,3.9,3.5,5.9,5.3
	c0.2,0.2,0.4,0.4,0.6,0.6c2,2.6,3.9,5.2,5.9,7.8c0.7,0.9,1.4,1.7,2.1,2.5c0.2,0.3,0.5,0.6,0.7,0.8
	C161.6,196.9,161.5,197,161.5,197.1z M163.2,196.6c-2.3-2.2-3.9-4.6-5.7-7c-1.2-1.6-2.3-3.2-3.6-4.7c-1-1.2-2.2-2.3-3.4-3.3
	c-2.3-2-4.7-4-7-6c-2.6-2.2-5.4-4.1-8.7-5.3c-1.6-0.6-3.1-1.4-4.8-2.2c4.7-1.5,9.2-1.5,13.8-0.5c-0.4,2-0.3,2.2,1.6,2.8
	c-0.1,0.9-0.3,1.9,0.7,2.6c0.9,0.6,1.8,0.3,2.9-0.3c-0.2,2-0.1,3.7,2.4,4.1c0.1,0.4,0.2,0.8,0.3,1.2c0.3,1.1,1.5,1.4,2.3,0.7
	c0.6-0.6,1-1.2,1.5-1.9C157,179.3,162.6,191,163.2,196.6z M155.9,161c-1.3-1.3-2.6-2.5-3.2-4.3c-0.2-0.8-0.3-1.6-0.3-2.5
	c0-0.7,0.6-1.1,1.3-1c0.4,0.1,0.9,0.4,1.3,0.2c0.4-0.1,0.6-0.7,0.9-1.1c0.8,0.4,1.1,1,1.2,1.7c0.1,0.6,0.2,1.2,0.1,1.8
	c-0.1,1.5-0.4,3-0.6,4.5c0,0.3-0.2,0.6-0.3,0.9C156.3,161.1,156.1,161.1,155.9,161z M163,176.2c-0.5-0.1-1.2-0.4-1.5-0.2
	c-0.4,0.2-0.5,0.9-0.7,1.5c-0.6,0.3-1.3-0.1-1.8-0.5c-0.6-0.5-1.1-1.2-1.6-1.9c-0.2-0.3-0.3-0.7-0.5-1c-0.6-1.2-0.7-2.3-0.3-3.6
	c0.4-1.5,0.6-3.1,0.9-4.6c2,2.6,3.9,5,5.8,7.6C163.8,174.2,163.7,175.4,163,176.2z M165.8,158.3c0.4,0.3,0.6,0.7,0.8,1.1
	c0.4,0.6,0.3,0.9-0.3,1.2c-0.4,0.2-0.9,0.4-1.4,0.5c-1.6,0.2-3.2,0.4-4.9,0.6c-0.7,0-1.5-0.2-2.4-0.3c0.9-2,1.7-3.8,2.9-5.4
	c1-1.4,2.4-2.2,4.1-2.4c0.3,0,0.6,0,1.2,0c-0.2,0.6-0.4,1-0.5,1.4C164.8,156.2,164.6,157.3,165.8,158.3z M166,170.2
	c0.1,0.7-0.3,0.9-1,0.7c-0.5-0.2-1.1-0.4-1.5-0.7c-1.4-1.2-2.8-2.4-4.1-3.7c-0.9-1-1.3-2.2-1.6-3.7c3.8,0.4,6.7,2,9.2,4.8
	C166.3,168.2,165.9,169,166,170.2z M207.1,170.2c-2.3,1.1-4.7,2.2-7,3.2c-1.1,0.5-2.3,0.9-3.4,1.2c-3.7,1-7.5,2.1-11.3,2.5
	c-2.1,0.2-4.1,0.2-6.1-0.3c-1.7-0.4-3.2-1.2-4.6-2.3c-2.4-1.8-4.8-3.6-7.2-5.4c0.3-0.3,0.6-0.5,0.8-0.8c0.4-0.6,0.4-1.3-0.1-1.7
	c-1.6-1.3-3-3-5.1-3.9c0.3-0.1,0.6-0.2,1-0.3c0.8-0.2,1.7-0.3,2.5-0.5c1.9-0.7,2.2-1.9,1.1-3.5c-0.1-0.1-0.1-0.2-0.2-0.5
	c0.8,0.2,1.5,0.3,2.1,0.5c2.2,0.7,4.3,1.6,6.4,2.7c3.5,2,7.2,3.6,11.1,4.8c1,0.3,1.9,0.7,2.9,0.9c1.6,0.4,3.3,0.9,4.9,1.1
	c4,0.5,7.9,1,11.9,1.4c0.4,0,0.8,0.2,1.2,0.2c0.1,0.1,0.1,0.3,0.2,0.4C207.7,170.1,207.4,170.1,207.1,170.2z M195.2,156.3
	c3,1.9,5.8,4.1,8.6,6.2c2.2,1.7,4.1,3.7,6,5.7c0,0.1-0.1,0.2-0.1,0.3c-0.3,0-0.6,0.1-1,0c-4.3-0.5-8.7-1-13-1.6
	c-2.5-0.4-5-0.8-7.3-1.8c-1.5-0.6-3.1-1.1-4.7-1.6c-2.8-0.9-5.3-2.4-8-3.8c-2.8-1.4-5.7-2.8-8.9-3.1c-0.2,0-0.4-0.1-0.7-0.2
	c0.2-0.6,0.4-1.1,0.6-1.6c0.8-1.9,0.1-2.8-2-2.6c-2.2,0.2-3.9,1.3-5.2,3c-0.2,0.3-0.5,0.7-0.9,1.3c0-2.1,0-3.9-1.7-5.4
	c2.4-0.7,4.5-1.5,6.7-2.1c3.2-0.9,6.5-1.1,9.7-0.8c0.7,0.1,1.5,0.1,2.2,0.2c0.1,0,0.2,0,0.3,0c0.8,0.1,1.5,0.2,2.3,0.4
	c3,0.6,6,1.4,8.8,2.8c1,0.5,1.9,1,2.9,1.4C191.6,154.2,193.4,155.2,195.2,156.3z"/>
</svg>
